# xmcd CD database file
#
# Track frame offsets:
#	150
#	14176
#	28127
#	40750
#	54378
#	65974
#	80798
#	98062
#	111368
#	127504
#
# Disc length: 1890 seconds
#
# Revision: 0
# Processed by: cddbd v1.5PL3 Copyright (c) Steve Scherf et al.
# Submitted via: CDex 1.50
#
DISCID=8807600a
DTITLE=Montana Highway - All in Vain
DYEAR=1900
DGENRE=Country
TTITLE0=Another Trail
TTITLE1=All in Vain
TTITLE2=Five Lake Country
TTITLE3=Listen to my promise
TTITLE4=Down in the Dumps
TTITLE5=Headed for fame
TTITLE6=Ode to Daddy
TTITLE7=What will your children do
TTITLE8=Destiny
TTITLE9=You saved my life in a country pub
EXTD=
EXTT0=
EXTT1=
EXTT2=
EXTT3=
EXTT4=
EXTT5=
EXTT6=
EXTT7=
EXTT8=
EXTT9=
PLAYORDER=
